<svg width="486" height="149" viewBox="0 0 486 149" fill="none" xmlns="http://www.w3.org/2000/svg">
<line y1="3.56616" x2="486" y2="3.56616" stroke="#2A2A2A" stroke-width="5.25" stroke-dasharray="36 36"/>
<path d="M24.2751 33.4859L25.2539 123.406L41.3822 123.285L40.4034 33.3641L24.2751 33.4859Z" fill="#151515"/>
<path d="M47.3551 33.3116L48.334 123.232L52.436 123.201L51.4571 33.2806L47.3551 33.3116Z" fill="#151515"/>
<path d="M56.0622 33.2464L57.041 123.167L61.143 123.136L60.1642 33.2154L56.0622 33.2464Z" fill="#151515"/>
<path d="M61.7633 33.2032L62.7422 123.124L72.8574 123.047L71.8786 33.1268L61.7633 33.2032Z" fill="#151515"/>
<path d="M74.7594 33.105L75.7383 123.026L77.2807 123.014L76.3019 33.0934L74.7594 33.105Z" fill="#151515"/>
<path d="M197.763 32.1763L198.742 122.097L200.285 122.085L199.306 32.1647L197.763 32.1763Z" fill="#151515"/>
<path d="M232.435 31.9148L233.414 121.835L234.956 121.824L233.978 31.9032L232.435 31.9148Z" fill="#151515"/>
<path d="M271.386 31.6208L272.365 121.541L273.908 121.53L272.929 31.6091L271.386 31.6208Z" fill="#151515"/>
<path d="M274.994 31.594L275.973 121.515L277.515 121.503L276.536 31.5824L274.994 31.594Z" fill="#151515"/>
<path d="M82.1833 33.0493L83.1621 122.97L87.2641 122.939L86.2853 33.0184L82.1833 33.0493Z" fill="#151515"/>
<path d="M90.8903 32.9834L91.8691 122.904L93.9145 122.889L92.9356 32.968L90.8903 32.9834Z" fill="#151515"/>
<path d="M95.0446 32.9527L96.0234 122.873L98.0688 122.858L97.0899 32.9372L95.0446 32.9527Z" fill="#151515"/>
<path d="M99.609 32.9175L100.588 122.838L104.69 122.807L103.711 32.8865L99.609 32.9175Z" fill="#151515"/>
<path d="M105.799 32.8706L106.777 122.791L115.909 122.722L114.93 32.8017L105.799 32.8706Z" fill="#151515"/>
<path d="M116.941 32.7871L117.92 122.708L120.122 122.691L119.143 32.7705L116.941 32.7871Z" fill="#151515"/>
<path d="M125.728 32.7201L126.707 122.641L130.809 122.61L129.83 32.6892L125.728 32.7201Z" fill="#151515"/>
<path d="M132.052 32.6729L133.031 122.594L137.133 122.563L136.154 32.6419L132.052 32.6729Z" fill="#151515"/>
<path d="M141.072 32.6048L142.051 122.525L150.299 122.463L149.321 32.5425L141.072 32.6048Z" fill="#151515"/>
<path d="M151.847 32.5235L152.826 122.444L156.928 122.413L155.949 32.4925L151.847 32.5235Z" fill="#151515"/>
<path d="M160.564 32.4576L161.543 122.378L165.645 122.347L164.666 32.4266L160.564 32.4576Z" fill="#151515"/>
<path d="M172.248 32.3697L173.227 122.29L177.329 122.259L176.35 32.3387L172.248 32.3697Z" fill="#151515"/>
<path d="M177.982 32.3257L178.961 122.246L183.063 122.215L182.084 32.2948L177.982 32.3257Z" fill="#151515"/>
<path d="M186.685 32.2605L187.664 122.181L191.766 122.15L190.787 32.2296L186.685 32.2605Z" fill="#151515"/>
<path d="M202.982 32.1371L203.961 122.058L210.298 122.01L209.319 32.0893L202.982 32.1371Z" fill="#151515"/>
<path d="M212.806 32.0635L213.785 121.984L217.887 121.953L216.908 32.0325L212.806 32.0635Z" fill="#151515"/>
<path d="M221.525 31.9973L222.504 121.918L226.606 121.887L225.627 31.9664L221.525 31.9973Z" fill="#151515"/>
<path d="M236.951 31.8804L237.93 121.801L246.011 121.74L245.032 31.8194L236.951 31.8804Z" fill="#151515"/>
<path d="M247.646 31.8002L248.625 121.721L252.727 121.69L251.748 31.7692L247.646 31.8002Z" fill="#151515"/>
<path d="M256.353 31.7339L257.332 121.655L261.434 121.624L260.455 31.703L256.353 31.7339Z" fill="#151515"/>
<path d="M261.447 31.6958L262.426 121.616L266.528 121.585L265.549 31.6649L261.447 31.6958Z" fill="#151515"/>
<path d="M282.486 31.5369L283.465 121.458L287.567 121.427L286.588 31.5059L282.486 31.5369Z" fill="#151515"/>
<path d="M291.189 31.4717L292.168 121.392L296.27 121.361L295.291 31.4407L291.189 31.4717Z" fill="#151515"/>
<path d="M299.822 31.4065L300.801 121.327L303.003 121.311L302.024 31.3899L299.822 31.4065Z" fill="#151515"/>
<path d="M308.525 31.3406L309.504 121.261L311.706 121.245L310.727 31.324L308.525 31.3406Z" fill="#151515"/>
<path d="M316.15 31.2827L317.129 121.203L323.556 121.155L322.577 31.2342L316.15 31.2827Z" fill="#151515"/>
<path d="M323.771 31.2256L324.75 121.146L333.356 121.081L332.377 31.1607L323.771 31.2256Z" fill="#151515"/>
<path d="M343.433 31.0768L344.412 120.997L348.514 120.966L347.535 31.0458L343.433 31.0768Z" fill="#151515"/>
<path d="M352.15 31.011L353.129 120.932L357.231 120.901L356.252 30.9801L352.15 31.011Z" fill="#151515"/>
<path d="M362.902 30.93L363.881 120.851L365.926 120.835L364.947 30.9145L362.902 30.93Z" fill="#151515"/>
<path d="M339.609 31.1055L340.588 121.026L342.633 121.011L341.654 31.0901L339.609 31.1055Z" fill="#151515"/>
<path d="M383.963 30.7708L384.941 120.691L386.987 120.676L386.008 30.7553L383.963 30.7708Z" fill="#151515"/>
<path d="M367.049 30.899L368.027 120.82L377.159 120.751L376.18 30.83L367.049 30.899Z" fill="#151515"/>
<path d="M378.271 30.814L379.25 120.735L381.295 120.719L380.316 30.7986L378.271 30.814Z" fill="#151515"/>
<path d="M395.685 30.6829L396.664 120.604L400.766 120.573L399.787 30.6519L395.685 30.6829Z" fill="#151515"/>
<path d="M404.39 30.617L405.369 120.538L409.471 120.507L408.492 30.586L404.39 30.617Z" fill="#151515"/>
<path d="M413.109 30.5511L414.088 120.472L418.19 120.441L417.211 30.5201L413.109 30.5511Z" fill="#151515"/>
<path d="M422.732 30.4785L423.711 120.399L435.301 120.312L434.323 30.3911L422.732 30.4785Z" fill="#151515"/>
<path d="M439.23 30.354L440.209 120.275L444.311 120.244L443.332 30.3231L439.23 30.354Z" fill="#151515"/>
<path d="M447.938 30.2876L449.191 145.46L453.293 145.429L452.04 30.2566L447.938 30.2876Z" fill="#151515"/>
<path d="M456.645 30.2224L457.898 145.394L462 145.364L460.747 30.1914L456.645 30.2224Z" fill="#151515"/>
<path d="M24.1875 148.668L24.1723 147.272L26.2995 145.525C31.4187 141.391 33.7199 139.204 33.7258 136.672C33.7072 134.96 32.6953 133.394 29.6776 133.417C28.0982 133.477 26.5918 133.988 25.4121 134.864L24.523 133.27C26.1182 132.153 28.1318 131.535 30.2158 131.524C34.5637 131.491 36.4237 133.962 36.4498 136.363C36.4836 139.472 33.817 141.968 29.596 145.444L27.9889 146.694L27.9895 146.75L37.0428 146.682L37.0631 148.543L24.1875 148.668Z" fill="#151515"/>
<path d="M52.8591 145.836C54.2214 146.496 55.7658 146.85 57.3414 146.864C60.851 146.837 61.9149 144.967 61.8661 143.572C61.8405 141.217 59.2476 140.231 56.6099 140.251L55.0898 140.262L55.0712 138.55L56.5912 138.538C58.5807 138.523 61.0527 137.648 61.031 135.656C61.0164 134.316 59.9864 133.132 57.4604 133.152C56.0135 133.197 54.6146 133.596 53.4377 134.299L52.7043 132.648C54.2671 131.783 56.1005 131.319 57.977 131.314C61.9448 131.284 63.7769 133.234 63.7992 135.282C63.818 137.013 62.5821 138.493 60.109 139.266C61.351 139.416 62.4882 139.93 63.3162 140.715C64.1442 141.5 64.6089 142.506 64.6268 143.551C64.6561 146.241 62.167 148.614 57.3161 148.651C55.4787 148.682 53.6646 148.304 52.0619 147.555L52.8591 145.836Z" fill="#151515"/>
<path d="M91.6622 132.95C90.974 132.929 90.2851 132.969 89.6068 133.068C87.8097 133.289 86.1519 134.002 84.8934 135.093C83.6348 136.184 82.8467 137.592 82.6527 139.096L82.7532 139.095C83.3202 138.473 84.0543 137.969 84.8968 137.625C85.7393 137.281 86.6668 137.105 87.6052 137.113C91.1818 137.086 93.7201 139.217 93.7559 142.503C93.7894 145.584 91.3055 148.441 87.1142 148.473C82.9228 148.505 79.9417 145.735 79.8941 141.37C79.8228 139.98 80.0808 138.593 80.6535 137.287C81.2262 135.981 82.1022 134.782 83.2316 133.758C84.9806 132.344 87.243 131.453 89.6649 131.224C90.3225 131.137 90.9872 131.091 91.6531 131.088L91.6622 132.95ZM90.9855 142.654C90.9592 140.243 89.3004 138.813 86.7856 138.832C85.9692 138.852 85.1752 139.058 84.4895 139.428C83.8038 139.797 83.2527 140.316 82.8961 140.928C82.6855 141.234 82.5811 141.583 82.5942 141.936C82.6246 144.728 84.2337 146.736 87.1174 146.714C89.4422 146.696 91.0004 145.056 90.9743 142.654L90.9855 142.654Z" fill="#151515"/>
<path d="M108.048 143.763C108.025 141.641 109.528 140.131 112.011 139.237L112.01 139.153C111.096 138.868 110.301 138.365 109.726 137.708C109.151 137.05 108.819 136.267 108.773 135.454C108.744 132.783 111.418 130.957 114.961 130.93C118.873 130.901 120.862 132.924 120.885 135.019C120.874 135.879 120.553 136.717 119.963 137.424C119.372 138.131 118.54 138.673 117.575 138.981L117.576 139.055C120.1 139.865 121.669 141.333 121.692 143.371C121.723 146.294 118.738 148.281 114.882 148.31C110.645 148.295 108.074 146.22 108.048 143.763ZM118.922 143.578C118.899 141.54 117.179 140.566 114.411 139.936C112.059 140.531 110.799 141.825 110.816 143.435C110.803 143.874 110.902 144.31 111.106 144.715C111.311 145.12 111.616 145.484 112.001 145.784C112.387 146.083 112.844 146.312 113.343 146.453C113.842 146.595 114.372 146.647 114.897 146.606C117.367 146.587 118.941 145.31 118.922 143.578ZM111.308 135.258C111.327 136.943 112.857 137.834 115.198 138.329C116.038 138.161 116.789 137.77 117.338 137.215C117.886 136.66 118.203 135.971 118.239 135.253C118.257 134.878 118.179 134.505 118.009 134.158C117.84 133.812 117.583 133.499 117.256 133.242C116.929 132.985 116.539 132.79 116.114 132.669C115.688 132.548 115.236 132.505 114.789 132.542C114.343 132.51 113.895 132.557 113.472 132.678C113.05 132.799 112.662 132.992 112.334 133.245C112.007 133.498 111.746 133.806 111.569 134.147C111.392 134.489 111.304 134.858 111.308 135.23L111.308 135.258Z" fill="#151515"/>
<path d="M155.092 147.68L155.077 146.284L157.204 144.537C162.312 140.403 164.624 138.216 164.619 135.685C164.67 135.237 164.599 134.786 164.412 134.364C164.225 133.943 163.927 133.562 163.539 133.249C163.152 132.937 162.685 132.701 162.173 132.559C161.661 132.417 161.117 132.372 160.582 132.429C159 132.49 157.49 133.001 156.305 133.876L155.427 132.282C157.019 131.16 159.035 130.542 161.12 130.535C165.468 130.503 167.328 132.974 167.354 135.375C167.388 138.484 164.71 140.98 160.489 144.456L158.893 145.706L158.894 145.762L167.958 145.694L167.979 147.555L155.092 147.68Z" fill="#151515"/>
<path d="M183.767 144.849C185.129 145.509 186.674 145.863 188.25 145.876C191.759 145.85 192.834 143.98 192.786 142.584C192.76 140.229 190.167 139.244 187.529 139.263L186.009 139.275L185.991 137.562L187.511 137.551C189.5 137.536 191.972 136.661 191.95 134.669C191.936 133.329 190.895 132.145 188.38 132.164C186.933 132.21 185.534 132.609 184.357 133.311L183.624 131.66C185.182 130.795 187.012 130.331 188.885 130.327C192.864 130.296 194.685 132.247 194.707 134.294C194.696 135.201 194.331 136.08 193.667 136.798C193.004 137.517 192.077 138.036 191.028 138.278C192.27 138.428 193.408 138.942 194.236 139.727C195.064 140.513 195.528 141.518 195.546 142.563C195.575 145.253 193.086 147.627 188.236 147.664C186.394 147.696 184.576 147.318 182.97 146.568L183.767 144.849Z" fill="#151515"/>
<path d="M224.118 130.339L224.134 131.847L215.516 147.224L212.688 147.246L221.277 132.288L221.277 132.232L211.408 132.306L211.387 130.445L224.118 130.339Z" fill="#151515"/>
<path d="M238.95 142.775C238.927 140.653 240.431 139.143 242.902 138.249L242.901 138.165C241.984 137.882 241.187 137.381 240.609 136.723C240.031 136.065 239.699 135.28 239.653 134.466C239.624 131.795 242.309 129.969 245.852 129.942C249.764 129.913 251.742 131.936 251.765 134.031C251.756 134.892 251.435 135.73 250.845 136.437C250.254 137.144 249.421 137.686 248.455 137.993L248.456 138.068C250.98 138.877 252.549 140.345 252.571 142.383C252.603 145.306 249.607 147.293 245.762 147.322C241.604 147.307 238.977 145.232 238.95 142.775ZM249.813 142.59C249.791 140.552 248.081 139.578 245.302 138.948C242.95 139.543 241.69 140.837 241.707 142.447C241.695 142.885 241.793 143.32 241.997 143.725C242.2 144.129 242.504 144.493 242.889 144.792C243.273 145.092 243.729 145.32 244.227 145.462C244.725 145.605 245.253 145.658 245.777 145.618C248.292 145.599 249.832 144.322 249.813 142.59ZM242.211 134.27C242.229 135.955 243.759 136.846 246.1 137.341C246.939 137.172 247.689 136.78 248.238 136.226C248.786 135.671 249.103 134.982 249.141 134.265C249.159 133.89 249.081 133.517 248.912 133.17C248.742 132.824 248.485 132.511 248.158 132.254C247.831 131.997 247.442 131.802 247.016 131.681C246.59 131.56 246.139 131.517 245.691 131.554C245.246 131.522 244.797 131.568 244.375 131.69C243.952 131.811 243.564 132.004 243.237 132.257C242.909 132.51 242.648 132.818 242.472 133.159C242.295 133.501 242.206 133.87 242.21 134.242L242.211 134.27Z" fill="#151515"/>
<path d="M275.746 146.769L275.696 142.19L266.308 142.261L266.291 140.762L275.183 129.953L278.134 129.931L278.247 140.384L281.075 140.362L281.095 142.149L278.267 142.171L278.317 146.75L275.746 146.769ZM275.677 140.403L275.616 134.818C275.606 133.943 275.597 133.059 275.677 132.184L275.587 132.184C274.972 133.166 274.488 133.896 273.938 134.673L269.06 140.434L269.06 140.481L275.677 140.403Z" fill="#151515"/>
<path d="M307.235 131.629L299.557 131.687L298.833 136.012C299.376 135.941 299.925 135.903 300.475 135.897C301.997 135.87 303.501 136.18 304.833 136.795C305.745 137.222 306.5 137.847 307.019 138.604C307.537 139.361 307.798 140.221 307.774 141.092C307.81 144.377 304.696 146.858 300.315 146.891C298.558 146.941 296.817 146.597 295.274 145.896L295.937 144.16C297.266 144.754 298.753 145.062 300.261 145.058C300.867 145.089 301.474 145.017 302.045 144.846C302.617 144.675 303.14 144.409 303.584 144.065C304.028 143.72 304.383 143.303 304.627 142.841C304.871 142.378 305 141.879 305.005 141.373C304.982 139.205 303.199 137.664 299.164 137.694C298.229 137.709 297.296 137.776 296.372 137.892L297.58 129.813L307.248 129.74L307.235 131.629Z" fill="#151515"/>
<path d="M403.967 131.103L403.911 131.104L400.419 132.713L399.864 130.985L404.313 128.978L406.638 128.961L406.821 145.78L404.183 145.8L403.967 131.103Z" fill="#151515"/>
<path d="M432.02 130.892L431.953 130.892L428.461 132.501L427.917 130.774L432.366 128.767L434.691 128.749L434.874 145.568L432.236 145.588L432.02 130.892Z" fill="#151515"/>
</svg>
