<svg width="166" height="88" viewBox="0 0 166 88" fill="none" xmlns="http://www.w3.org/2000/svg">
<g clip-path="url(#clip0_9124_153395)">
<path d="M107.167 9.38142C101.495 3.70887 93.9544 0.585815 85.9335 0.585815C77.9127 0.585815 70.3693 3.70887 64.6998 9.38142C52.9913 21.0899 52.9913 40.1405 64.7118 51.861L85.9335 72.6173L107.167 51.849C118.876 40.1405 118.876 21.0899 107.167 9.38142ZM105.056 49.7139L85.9335 68.4192L66.8228 49.7259C56.2855 39.1886 56.2855 22.0418 66.8228 11.5045C71.9278 6.3995 78.7145 3.58875 85.9335 3.58875C93.1526 3.58875 99.9392 6.3995 105.044 11.5045C115.582 22.0418 115.582 39.1886 105.056 49.7139ZM96.8822 35.0896L99.0053 37.2127C95.5129 40.7051 90.8734 42.627 85.9335 42.627C80.9937 42.627 76.3512 40.7051 72.8587 37.2127L74.9818 35.0896C77.9067 38.0144 81.7985 39.624 85.9335 39.624C90.0686 39.624 93.9574 38.0144 96.8822 35.0896ZM73.9218 24.6093C73.9218 22.9517 75.2671 21.6064 76.9247 21.6064C78.5823 21.6064 79.9277 22.9517 79.9277 24.6093C79.9277 26.2669 78.5823 27.6123 76.9247 27.6123C75.2671 27.6123 73.9218 26.2669 73.9218 24.6093ZM91.9394 24.6093C91.9394 22.9517 93.2847 21.6064 94.9424 21.6064C96.6 21.6064 97.9453 22.9517 97.9453 24.6093C97.9453 26.2669 96.6 27.6123 94.9424 27.6123C93.2847 27.6123 91.9394 26.2669 91.9394 24.6093Z" fill="#FF43AD"/>
</g>
<g clip-path="url(#clip1_9124_153395)">
<path d="M57.7269 24.4656C52.0543 18.7931 44.514 15.67 36.4931 15.67C28.4723 15.67 20.9289 18.7931 15.2593 24.4656C3.55088 36.1741 3.55088 55.2248 15.2713 66.9452L36.4931 87.7015L57.7269 66.9332C69.4353 55.2247 69.4353 36.1741 57.7269 24.4656ZM55.6158 64.7981L36.4931 83.5034L17.3824 64.8101C6.8451 54.2728 6.8451 37.126 17.3824 26.5887C22.4874 21.4837 29.274 18.673 36.4931 18.673C43.7122 18.673 50.4988 21.4837 55.6038 26.5887C66.1411 37.126 66.1411 54.2728 55.6158 64.7981ZM47.4418 50.1738L49.5649 52.2969C46.0725 55.7893 41.4329 57.7112 36.4931 57.7112C31.5533 57.7112 26.9107 55.7893 23.4183 52.2969L25.5414 50.1738C28.4663 53.0987 32.3581 54.7082 36.4931 54.7082C40.6282 54.7082 44.517 53.0987 47.4418 50.1738ZM24.4814 39.6936C24.4814 38.0359 25.8267 36.6906 27.4843 36.6906C29.1419 36.6906 30.4872 38.0359 30.4872 39.6936C30.4872 41.3512 29.1419 42.6965 27.4843 42.6965C25.8267 42.6965 24.4814 41.3512 24.4814 39.6936ZM42.499 39.6936C42.499 38.0359 43.8443 36.6906 45.5019 36.6906C47.1595 36.6906 48.5049 38.0359 48.5049 39.6936C48.5049 41.3512 47.1595 42.6965 45.5019 42.6965C43.8443 42.6965 42.499 41.3512 42.499 39.6936Z" fill="#00AAFF"/>
</g>
<g clip-path="url(#clip2_9124_153395)">
<path d="M150.746 24.4656C145.074 18.7931 137.533 15.67 129.513 15.67C121.492 15.67 113.948 18.7931 108.279 24.4656C96.5704 36.1741 96.5704 55.2248 108.291 66.9452L129.513 87.7015L150.746 66.9332C162.455 55.2247 162.455 36.1741 150.746 24.4656ZM148.635 64.7981L129.513 83.5034L110.402 64.8101C99.8646 54.2728 99.8646 37.126 110.402 26.5887C115.507 21.4837 122.294 18.673 129.513 18.673C136.732 18.673 143.518 21.4837 148.623 26.5887C159.161 37.126 159.161 54.2728 148.635 64.7981ZM140.461 50.1738L142.584 52.2969C139.092 55.7893 134.452 57.7112 129.513 57.7112C124.573 57.7112 119.93 55.7893 116.438 52.2969L118.561 50.1738C121.486 53.0987 125.378 54.7082 129.513 54.7082C133.648 54.7082 137.536 53.0987 140.461 50.1738ZM117.501 39.6936C117.501 38.0359 118.846 36.6906 120.504 36.6906C122.161 36.6906 123.507 38.0359 123.507 39.6936C123.507 41.3512 122.161 42.6965 120.504 42.6965C118.846 42.6965 117.501 41.3512 117.501 39.6936ZM135.519 39.6936C135.519 38.0359 136.864 36.6906 138.521 36.6906C140.179 36.6906 141.524 38.0359 141.524 39.6936C141.524 41.3512 140.179 42.6965 138.521 42.6965C136.864 42.6965 135.519 41.3512 135.519 39.6936Z" fill="#0EDF8A"/>
</g>
<defs>
<clipPath id="clip0_9124_153395">
<rect width="72.0705" height="72.0705" fill="white" transform="translate(49.8994 0.585815)"/>
</clipPath>
<clipPath id="clip1_9124_153395">
<rect width="72.0705" height="72.0705" fill="white" transform="translate(0.455078 15.67)"/>
</clipPath>
<clipPath id="clip2_9124_153395">
<rect width="72.0705" height="72.0705" fill="white" transform="translate(93.4756 15.67)"/>
</clipPath>
</defs>
</svg>
