<svg width="371" height="179" viewBox="0 0 371 179" fill="none" xmlns="http://www.w3.org/2000/svg">
<g filter="url(#filter0_d_9124_153377)">
<path d="M291.313 77.318C291.306 76.4598 292.286 75.9661 292.971 76.4824L299.099 81.0983C299.371 81.3033 299.727 81.3613 300.05 81.2533L307.326 78.8227C308.14 78.5508 308.912 79.3302 308.633 80.1417L306.136 87.3954C306.025 87.7176 306.08 88.0738 306.283 88.3478L310.843 94.5166C311.353 95.2067 310.85 96.1822 309.992 96.1673L302.322 96.0345C301.982 96.0286 301.66 96.1908 301.462 96.4681L297.004 102.711C296.505 103.41 295.422 103.233 295.171 102.413L292.927 95.0767C292.828 94.7509 292.574 94.4949 292.249 94.3923L284.934 92.082C284.116 91.8235 283.949 90.7389 284.652 90.2466L290.935 85.8456C291.214 85.6501 291.379 85.3298 291.376 84.989L291.313 77.318Z" fill="#00AAFF"/>
</g>
<g filter="url(#filter1_d_9124_153377)">
<path d="M77.3782 48.2242C77.8258 47.8085 78.5558 48.0864 78.6135 48.6946L79.1296 54.1307C79.1526 54.3722 79.2928 54.5869 79.5048 54.705L84.2755 57.3616C84.8092 57.6588 84.7705 58.439 84.21 58.6818L79.1994 60.8525C78.9768 60.949 78.8159 61.1487 78.7692 61.3868L77.7168 66.745C77.5991 67.3444 76.8451 67.5486 76.4409 67.0906L72.8281 62.996C72.6676 62.8141 72.4279 62.7229 72.1871 62.7519L66.7659 63.4069C66.1594 63.4801 65.7322 62.8262 66.043 62.3003L68.8207 57.599C68.9441 57.3901 68.9568 57.1339 68.8547 56.9139L66.5566 51.9604C66.2996 51.4063 66.7895 50.7979 67.3857 50.9309L72.7152 52.1199C72.952 52.1727 73.1996 52.1056 73.3773 51.9406L77.3782 48.2242Z" fill="#00AAFF"/>
</g>
<g filter="url(#filter2_d_9124_153377)">
<path d="M345.183 74.0648C345.633 73.8731 346.107 74.28 345.986 74.7534L344.902 78.9853C344.854 79.1733 344.901 79.3729 345.029 79.5192L347.901 82.8111C348.222 83.1794 347.981 83.7562 347.494 83.7871L343.134 84.0641C342.94 84.0764 342.765 84.1832 342.665 84.3497L340.422 88.0981C340.171 88.5175 339.548 88.467 339.368 88.0127L337.757 83.952C337.686 83.7716 337.53 83.638 337.341 83.5947L333.083 82.6194C332.606 82.5103 332.462 81.9023 332.838 81.5906L336.202 78.804C336.352 78.6802 336.431 78.4908 336.414 78.2975L336.025 73.9463C335.982 73.4595 336.515 73.1343 336.928 73.3959L340.618 75.7344C340.782 75.8382 340.987 75.8548 341.165 75.7787L345.183 74.0648Z" fill="#00AAFF"/>
</g>
<g filter="url(#filter3_d_9124_153377)">
<path d="M283.317 5.90415C283.3 5.41574 283.851 5.12021 284.249 5.40405L287.805 7.94131C287.963 8.05403 288.166 8.08179 288.348 8.01556L292.454 6.52455C292.914 6.35775 293.365 6.79008 293.218 7.25613L291.904 11.4222C291.845 11.6073 291.882 11.8093 292.001 11.9623L294.688 15.4067C294.989 15.792 294.717 16.3547 294.228 16.3589L289.86 16.3965C289.666 16.3981 289.485 16.4952 289.377 16.656L286.931 20.2757C286.657 20.6807 286.038 20.5961 285.883 20.1327L284.498 15.9898C284.436 15.8057 284.288 15.6638 284.101 15.6101L279.903 14.4029C279.433 14.2678 279.323 13.6528 279.715 13.3622L283.227 10.7642C283.383 10.6488 283.473 10.464 283.466 10.2701L283.317 5.90415Z" fill="#00AAFF"/>
</g>
<g filter="url(#filter4_d_9124_153377)">
<path d="M271.525 42.7549C271.508 42.2665 272.059 41.9709 272.457 42.2548L276.013 44.792C276.171 44.9047 276.374 44.9325 276.556 44.8663L280.662 43.3753C281.122 43.2085 281.573 43.6408 281.426 44.1068L280.112 48.2729C280.053 48.458 280.09 48.66 280.209 48.813L282.896 52.2574C283.197 52.6427 282.925 53.2054 282.436 53.2096L278.068 53.2472C277.874 53.2488 277.693 53.3459 277.585 53.5067L275.139 57.1265C274.865 57.5314 274.246 57.4468 274.091 56.9834L272.706 52.8405C272.644 52.6564 272.496 52.5145 272.309 52.4608L268.111 51.2536C267.641 51.1185 267.531 50.5035 267.923 50.2129L271.435 47.6149C271.591 47.4995 271.681 47.3147 271.674 47.1208L271.525 42.7549Z" fill="#00AAFF"/>
</g>
<g filter="url(#filter5_d_9124_153377)">
<path d="M80.0151 91.1457C79.9859 90.291 80.9495 89.7738 81.6457 90.2705L87.8688 94.7107C88.1453 94.908 88.5011 94.9565 88.8203 94.8406L96.006 92.2314C96.8099 91.9395 97.5995 92.6961 97.3422 93.5117L95.0424 100.802C94.9402 101.126 95.004 101.48 95.2129 101.747L99.9149 107.775C100.441 108.449 99.9654 109.434 99.1102 109.442L91.4657 109.507C91.1261 109.51 90.8097 109.68 90.6196 109.961L86.3399 116.296C85.8611 117.005 84.7776 116.857 84.5063 116.046L82.0816 108.796C81.9739 108.473 81.7146 108.225 81.3882 108.131L74.0411 106.018C73.2192 105.782 73.0251 104.706 73.7126 104.197L79.8586 99.6508C80.1316 99.4488 80.2878 99.1254 80.2762 98.786L80.0151 91.1457Z" fill="#00AAFF"/>
</g>
<g filter="url(#filter6_d_9124_153377)">
<path d="M157.791 105.548C158.359 104.909 159.414 105.2 159.575 106.04L161.015 113.548C161.079 113.881 161.303 114.162 161.614 114.298L168.615 117.368C169.398 117.712 169.448 118.804 168.699 119.217L162.004 122.907C161.706 123.071 161.508 123.37 161.475 123.708L160.719 131.316C160.634 132.167 159.61 132.551 158.986 131.967L153.408 126.739C153.16 126.507 152.814 126.411 152.482 126.484L145.014 128.116C144.178 128.298 143.496 127.443 143.859 126.669L147.107 119.749C147.252 119.441 147.235 119.082 147.064 118.789L143.204 112.19C142.772 111.452 143.374 110.539 144.223 110.646L151.808 111.596C152.145 111.638 152.482 111.512 152.707 111.258L157.791 105.548Z" fill="#00AAFF"/>
</g>
<g filter="url(#filter7_d_9124_153377)">
<path d="M131.773 88.6819C131.985 88.5375 132.27 88.699 132.256 88.9551L132.127 91.245C132.122 91.3467 132.166 91.4447 132.247 91.5071L134.061 92.9111C134.263 93.0681 134.198 93.3896 133.95 93.4551L131.733 94.0405C131.634 94.0665 131.555 94.1393 131.52 94.2352L130.745 96.3938C130.659 96.6353 130.333 96.6725 130.194 96.4569L128.952 94.5288C128.897 94.4432 128.803 94.3902 128.701 94.387L126.409 94.3171C126.152 94.3093 126.016 94.0108 126.178 93.812L127.628 92.035C127.692 91.9561 127.714 91.8505 127.685 91.7527L127.044 89.5509C126.972 89.3046 127.214 89.0829 127.453 89.1757L129.591 90.0055C129.686 90.0424 129.793 90.0301 129.877 89.9728L131.773 88.6819Z" fill="#00AAFF"/>
</g>
<g filter="url(#filter8_d_9124_153377)">
<path d="M86.4813 127.209C86.47 126.953 86.7575 126.795 86.9678 126.942L88.8481 128.255C88.9316 128.313 89.0385 128.327 89.1339 128.291L91.2816 127.487C91.5219 127.397 91.7611 127.621 91.6863 127.867L91.0184 130.061C90.9887 130.158 91.0089 130.264 91.0724 130.344L92.5011 132.138C92.661 132.339 92.5213 132.635 92.2648 132.64L89.9717 132.683C89.8698 132.685 89.7754 132.737 89.7193 132.822L88.4545 134.735C88.313 134.949 87.9875 134.908 87.9037 134.665L87.1545 132.498C87.1212 132.401 87.0427 132.328 86.9445 132.301L84.7341 131.689C84.4868 131.62 84.4253 131.298 84.63 131.144L86.46 129.761C86.5413 129.7 86.5872 129.602 86.5827 129.5L86.4813 127.209Z" fill="#00AAFF"/>
</g>
<g filter="url(#filter9_d_9124_153377)">
<path d="M180.105 135.689C180.306 135.53 180.603 135.671 180.607 135.927L180.643 138.22C180.645 138.322 180.696 138.417 180.781 138.473L182.691 139.744C182.904 139.886 182.862 140.211 182.62 140.294L180.45 141.037C180.353 141.07 180.279 141.148 180.252 141.247L179.634 143.455C179.565 143.702 179.242 143.763 179.088 143.558L177.711 141.724C177.65 141.642 177.553 141.596 177.451 141.6L175.159 141.695C174.903 141.706 174.746 141.418 174.893 141.208L176.212 139.331C176.271 139.248 176.284 139.141 176.249 139.046L175.451 136.896C175.361 136.655 175.587 136.417 175.832 136.492L178.024 137.166C178.121 137.196 178.227 137.176 178.307 137.113L180.105 135.689Z" fill="#00AAFF"/>
</g>
<g filter="url(#filter10_d_9124_153377)">
<path d="M188.317 95.8792C188.329 95.6229 188.629 95.4914 188.825 95.6566L190.58 97.134C190.658 97.1996 190.763 97.2227 190.861 97.1957L193.073 96.5881C193.32 96.5201 193.538 96.7653 193.441 97.003L192.578 99.128C192.54 99.2224 192.551 99.3296 192.607 99.4147L193.868 101.33C194.009 101.544 193.843 101.827 193.587 101.809L191.3 101.645C191.198 101.638 191.099 101.681 191.036 101.761L189.604 103.552C189.444 103.752 189.123 103.682 189.062 103.433L188.511 101.207C188.486 101.108 188.415 101.027 188.319 100.991L186.173 100.183C185.933 100.093 185.901 99.7662 186.119 99.6306L188.066 98.4187C188.152 98.3649 188.207 98.272 188.211 98.1702L188.317 95.8792Z" fill="#00AAFF"/>
</g>
<g filter="url(#filter11_d_9124_153377)">
<path d="M32.2471 98.8977C32.2346 98.5313 32.6476 98.3097 32.9459 98.5226L35.613 100.426C35.7315 100.51 35.884 100.531 36.0208 100.481L39.1004 99.363C39.4449 99.2379 39.7833 99.5621 39.673 99.9116L38.6874 103.036C38.6436 103.175 38.6709 103.326 38.7604 103.441L40.7756 106.025C41.0011 106.314 40.7973 106.736 40.4307 106.739L37.1545 106.767C37.009 106.768 36.8734 106.841 36.7919 106.962L34.9577 109.676C34.7526 109.98 34.2882 109.917 34.1719 109.569L33.1328 106.462C33.0866 106.324 32.9755 106.217 32.8356 106.177L29.6869 105.272C29.3346 105.17 29.2514 104.709 29.5461 104.491L32.1801 102.543C32.2971 102.456 32.364 102.318 32.359 102.172L32.2471 98.8977Z" fill="#00AAFF"/>
</g>
<g filter="url(#filter12_d_9124_153377)">
<path d="M21.2911 44.9831C20.5352 44.583 20.5663 43.4898 21.3436 43.1333L28.2923 39.9459C28.601 39.8043 28.8202 39.5199 28.8785 39.1854L30.1922 31.6543C30.3391 30.8118 31.3884 30.5035 31.9677 31.1326L37.1463 36.7562C37.3763 37.0061 37.7146 37.1267 38.0508 37.0788L45.6192 36.0009C46.4659 35.8803 47.0833 36.7829 46.664 37.5283L42.9159 44.1912C42.7494 44.4872 42.7392 44.8462 42.8887 45.1512L46.2526 52.0161C46.6289 52.784 45.9612 53.6502 45.1228 53.4817L37.6277 51.976C37.2948 51.9091 36.9502 52.0104 36.7064 52.2467L31.2169 57.5674C30.6028 58.1626 29.5728 57.7953 29.4739 56.9458L28.5898 49.3523C28.5505 49.0149 28.3478 48.7185 28.0476 48.5597L21.2911 44.9831Z" fill="#00AAFF"/>
</g>
<g filter="url(#filter13_d_9124_153377)">
<path d="M119.377 29.4118C119.352 28.6792 120.178 28.2359 120.775 28.6616L126.109 32.4675C126.346 32.6366 126.651 32.6782 126.924 32.5789L133.084 30.3424C133.773 30.0922 134.449 30.7407 134.229 31.4397L132.258 37.6889C132.17 37.9665 132.225 38.2694 132.404 38.4989L136.434 43.6656C136.885 44.2436 136.477 45.0876 135.744 45.0939L129.192 45.1502C128.901 45.1527 128.63 45.2983 128.467 45.5395L124.798 50.9692C124.388 51.5766 123.459 51.4498 123.227 50.7546L121.148 44.5402C121.056 44.2641 120.834 44.0512 120.554 43.9707L114.257 42.1598C113.552 41.9572 113.386 41.0348 113.975 40.5988L119.243 36.7019C119.477 36.5287 119.611 36.2516 119.601 35.9606L119.377 29.4118Z" fill="#00AAFF"/>
</g>
<g filter="url(#filter14_d_9124_153377)">
<path d="M226.862 55.7624C227.367 55.2306 228.262 55.5082 228.377 56.2321L229.407 62.7035C229.453 62.9909 229.637 63.2375 229.9 63.3628L235.814 66.1834C236.476 66.4989 236.489 67.4362 235.836 67.7694L229.999 70.7483C229.74 70.8806 229.562 71.1321 229.524 71.4207L228.67 77.9174C228.574 78.6441 227.687 78.9458 227.168 78.4278L222.531 73.7976C222.325 73.5919 222.031 73.5007 221.745 73.5538L215.302 74.7484C214.581 74.882 214.02 74.1312 214.353 73.4778L217.323 67.6373C217.455 67.3778 217.451 67.07 217.312 66.8142L214.185 61.0558C213.835 60.4116 214.376 59.646 215.1 59.7601L221.573 60.7807C221.86 60.8261 222.152 60.727 222.352 60.5158L226.862 55.7624Z" fill="#00AAFF"/>
</g>
<g filter="url(#filter15_d_9124_153377)">
<path d="M233.755 120.451C233.721 119.474 234.823 118.883 235.618 119.451L242.73 124.525C243.046 124.751 243.453 124.806 243.818 124.674L252.03 121.692C252.949 121.358 253.851 122.223 253.557 123.155L250.929 131.487C250.812 131.857 250.885 132.261 251.124 132.567L256.497 139.456C257.099 140.227 256.555 141.352 255.578 141.36L246.841 141.435C246.453 141.439 246.091 141.633 245.874 141.955L240.983 149.194C240.436 150.004 239.198 149.835 238.888 148.908L236.116 140.622C235.993 140.254 235.697 139.97 235.324 139.863L226.927 137.448C225.988 137.178 225.766 135.948 226.552 135.367L233.576 130.171C233.888 129.94 234.066 129.571 234.053 129.183L233.755 120.451Z" fill="#00AAFF"/>
</g>
<defs>
<filter id="filter0_d_9124_153377" x="263.502" y="59.7057" width="68.2538" height="68.2892" filterUnits="userSpaceOnUse" color-interpolation-filters="sRGB">
<feFlood flood-opacity="0" result="BackgroundImageFix"/>
<feColorMatrix in="SourceAlpha" type="matrix" values="0 0 0 0 0 0 0 0 0 0 0 0 0 0 0 0 0 0 127 0" result="hardAlpha"/>
<feOffset dy="4.14159"/>
<feGaussianBlur stdDeviation="10.354"/>
<feComposite in2="hardAlpha" operator="out"/>
<feColorMatrix type="matrix" values="0 0 0 0 0.0823529 0 0 0 0 0.0823529 0 0 0 0 0.0823529 0 0 0 0.25 0"/>
<feBlend mode="normal" in2="BackgroundImageFix" result="effect1_dropShadow_9124_153377"/>
<feBlend mode="normal" in="SourceGraphic" in2="effect1_dropShadow_9124_153377" result="shape"/>
</filter>
<filter id="filter1_d_9124_153377" x="51.1981" y="36.234" width="48.1965" height="48.795" filterUnits="userSpaceOnUse" color-interpolation-filters="sRGB">
<feFlood flood-opacity="0" result="BackgroundImageFix"/>
<feColorMatrix in="SourceAlpha" type="matrix" values="0 0 0 0 0 0 0 0 0 0 0 0 0 0 0 0 0 0 127 0" result="hardAlpha"/>
<feOffset dy="2.94807"/>
<feGaussianBlur stdDeviation="7.37017"/>
<feComposite in2="hardAlpha" operator="out"/>
<feColorMatrix type="matrix" values="0 0 0 0 0.0823529 0 0 0 0 0.0823529 0 0 0 0 0.0823529 0 0 0 0.25 0"/>
<feBlend mode="normal" in2="BackgroundImageFix" result="effect1_dropShadow_9124_153377"/>
<feBlend mode="normal" in="SourceGraphic" in2="effect1_dropShadow_9124_153377" result="shape"/>
</filter>
<filter id="filter2_d_9124_153377" x="320.832" y="63.8692" width="39.0074" height="38.6666" filterUnits="userSpaceOnUse" color-interpolation-filters="sRGB">
<feFlood flood-opacity="0" result="BackgroundImageFix"/>
<feColorMatrix in="SourceAlpha" type="matrix" values="0 0 0 0 0 0 0 0 0 0 0 0 0 0 0 0 0 0 127 0" result="hardAlpha"/>
<feOffset dy="2.35845"/>
<feGaussianBlur stdDeviation="5.89613"/>
<feComposite in2="hardAlpha" operator="out"/>
<feColorMatrix type="matrix" values="0 0 0 0 0.0823529 0 0 0 0 0.0823529 0 0 0 0 0.0823529 0 0 0 0.25 0"/>
<feBlend mode="normal" in2="BackgroundImageFix" result="effect1_dropShadow_9124_153377"/>
<feBlend mode="normal" in="SourceGraphic" in2="effect1_dropShadow_9124_153377" result="shape"/>
</filter>
<filter id="filter3_d_9124_153377" x="267.684" y="-4.1406" width="38.9215" height="38.8267" filterUnits="userSpaceOnUse" color-interpolation-filters="sRGB">
<feFlood flood-opacity="0" result="BackgroundImageFix"/>
<feColorMatrix in="SourceAlpha" type="matrix" values="0 0 0 0 0 0 0 0 0 0 0 0 0 0 0 0 0 0 127 0" result="hardAlpha"/>
<feOffset dy="2.35845"/>
<feGaussianBlur stdDeviation="5.89613"/>
<feComposite in2="hardAlpha" operator="out"/>
<feColorMatrix type="matrix" values="0 0 0 0 0.0823529 0 0 0 0 0.0823529 0 0 0 0 0.0823529 0 0 0 0.25 0"/>
<feBlend mode="normal" in2="BackgroundImageFix" result="effect1_dropShadow_9124_153377"/>
<feBlend mode="normal" in="SourceGraphic" in2="effect1_dropShadow_9124_153377" result="shape"/>
</filter>
<filter id="filter4_d_9124_153377" x="255.892" y="32.7101" width="38.9215" height="38.8267" filterUnits="userSpaceOnUse" color-interpolation-filters="sRGB">
<feFlood flood-opacity="0" result="BackgroundImageFix"/>
<feColorMatrix in="SourceAlpha" type="matrix" values="0 0 0 0 0 0 0 0 0 0 0 0 0 0 0 0 0 0 127 0" result="hardAlpha"/>
<feOffset dy="2.35845"/>
<feGaussianBlur stdDeviation="5.89613"/>
<feComposite in2="hardAlpha" operator="out"/>
<feColorMatrix type="matrix" values="0 0 0 0 0.0823529 0 0 0 0 0.0823529 0 0 0 0 0.0823529 0 0 0 0.25 0"/>
<feBlend mode="normal" in2="BackgroundImageFix" result="effect1_dropShadow_9124_153377"/>
<feBlend mode="normal" in="SourceGraphic" in2="effect1_dropShadow_9124_153377" result="shape"/>
</filter>
<filter id="filter5_d_9124_153377" x="52.6575" y="73.5674" width="68.1138" height="67.9468" filterUnits="userSpaceOnUse" color-interpolation-filters="sRGB">
<feFlood flood-opacity="0" result="BackgroundImageFix"/>
<feColorMatrix in="SourceAlpha" type="matrix" values="0 0 0 0 0 0 0 0 0 0 0 0 0 0 0 0 0 0 127 0" result="hardAlpha"/>
<feOffset dy="4.12729"/>
<feGaussianBlur stdDeviation="10.3182"/>
<feComposite in2="hardAlpha" operator="out"/>
<feColorMatrix type="matrix" values="0 0 0 0 0.0823529 0 0 0 0 0.0823529 0 0 0 0 0.0823529 0 0 0 0.25 0"/>
<feBlend mode="normal" in2="BackgroundImageFix" result="effect1_dropShadow_9124_153377"/>
<feBlend mode="normal" in="SourceGraphic" in2="effect1_dropShadow_9124_153377" result="shape"/>
</filter>
<filter id="filter6_d_9124_153377" x="122.424" y="88.6924" width="67.4448" height="68.3182" filterUnits="userSpaceOnUse" color-interpolation-filters="sRGB">
<feFlood flood-opacity="0" result="BackgroundImageFix"/>
<feColorMatrix in="SourceAlpha" type="matrix" values="0 0 0 0 0 0 0 0 0 0 0 0 0 0 0 0 0 0 127 0" result="hardAlpha"/>
<feOffset dy="4.12729"/>
<feGaussianBlur stdDeviation="10.3182"/>
<feComposite in2="hardAlpha" operator="out"/>
<feColorMatrix type="matrix" values="0 0 0 0 0.0823529 0 0 0 0 0.0823529 0 0 0 0 0.0823529 0 0 0 0.25 0"/>
<feBlend mode="normal" in2="BackgroundImageFix" result="effect1_dropShadow_9124_153377"/>
<feBlend mode="normal" in="SourceGraphic" in2="effect1_dropShadow_9124_153377" result="shape"/>
</filter>
<filter id="filter7_d_9124_153377" x="119.917" y="83.6748" width="20.4541" height="20.3532" filterUnits="userSpaceOnUse" color-interpolation-filters="sRGB">
<feFlood flood-opacity="0" result="BackgroundImageFix"/>
<feColorMatrix in="SourceAlpha" type="matrix" values="0 0 0 0 0 0 0 0 0 0 0 0 0 0 0 0 0 0 127 0" result="hardAlpha"/>
<feOffset dy="1.23819"/>
<feGaussianBlur stdDeviation="3.09547"/>
<feComposite in2="hardAlpha" operator="out"/>
<feColorMatrix type="matrix" values="0 0 0 0 0.0823529 0 0 0 0 0.0823529 0 0 0 0 0.0823529 0 0 0 0.25 0"/>
<feBlend mode="normal" in2="BackgroundImageFix" result="effect1_dropShadow_9124_153377"/>
<feBlend mode="normal" in="SourceGraphic" in2="effect1_dropShadow_9124_153377" result="shape"/>
</filter>
<filter id="filter8_d_9124_153377" x="78.3159" y="121.933" width="20.4444" height="20.3703" filterUnits="userSpaceOnUse" color-interpolation-filters="sRGB">
<feFlood flood-opacity="0" result="BackgroundImageFix"/>
<feColorMatrix in="SourceAlpha" type="matrix" values="0 0 0 0 0 0 0 0 0 0 0 0 0 0 0 0 0 0 127 0" result="hardAlpha"/>
<feOffset dy="1.23819"/>
<feGaussianBlur stdDeviation="3.09547"/>
<feComposite in2="hardAlpha" operator="out"/>
<feColorMatrix type="matrix" values="0 0 0 0 0.0823529 0 0 0 0 0.0823529 0 0 0 0 0.0823529 0 0 0 0.25 0"/>
<feBlend mode="normal" in2="BackgroundImageFix" result="effect1_dropShadow_9124_153377"/>
<feBlend mode="normal" in="SourceGraphic" in2="effect1_dropShadow_9124_153377" result="shape"/>
</filter>
<filter id="filter9_d_9124_153377" x="168.646" y="130.669" width="20.3741" height="20.4413" filterUnits="userSpaceOnUse" color-interpolation-filters="sRGB">
<feFlood flood-opacity="0" result="BackgroundImageFix"/>
<feColorMatrix in="SourceAlpha" type="matrix" values="0 0 0 0 0 0 0 0 0 0 0 0 0 0 0 0 0 0 127 0" result="hardAlpha"/>
<feOffset dy="1.23819"/>
<feGaussianBlur stdDeviation="3.09547"/>
<feComposite in2="hardAlpha" operator="out"/>
<feColorMatrix type="matrix" values="0 0 0 0 0.0823529 0 0 0 0 0.0823529 0 0 0 0 0.0823529 0 0 0 0.25 0"/>
<feBlend mode="normal" in2="BackgroundImageFix" result="effect1_dropShadow_9124_153377"/>
<feBlend mode="normal" in="SourceGraphic" in2="effect1_dropShadow_9124_153377" result="shape"/>
</filter>
<filter id="filter10_d_9124_153377" x="179.782" y="90.6306" width="20.3291" height="20.467" filterUnits="userSpaceOnUse" color-interpolation-filters="sRGB">
<feFlood flood-opacity="0" result="BackgroundImageFix"/>
<feColorMatrix in="SourceAlpha" type="matrix" values="0 0 0 0 0 0 0 0 0 0 0 0 0 0 0 0 0 0 127 0" result="hardAlpha"/>
<feOffset dy="1.23819"/>
<feGaussianBlur stdDeviation="3.09547"/>
<feComposite in2="hardAlpha" operator="out"/>
<feColorMatrix type="matrix" values="0 0 0 0 0.0823529 0 0 0 0 0.0823529 0 0 0 0 0.0823529 0 0 0 0.25 0"/>
<feBlend mode="normal" in2="BackgroundImageFix" result="effect1_dropShadow_9124_153377"/>
<feBlend mode="normal" in="SourceGraphic" in2="effect1_dropShadow_9124_153377" result="shape"/>
</filter>
<filter id="filter11_d_9124_153377" x="20.522" y="91.3641" width="29.1923" height="29.12" filterUnits="userSpaceOnUse" color-interpolation-filters="sRGB">
<feFlood flood-opacity="0" result="BackgroundImageFix"/>
<feColorMatrix in="SourceAlpha" type="matrix" values="0 0 0 0 0 0 0 0 0 0 0 0 0 0 0 0 0 0 127 0" result="hardAlpha"/>
<feOffset dy="1.76884"/>
<feGaussianBlur stdDeviation="4.4221"/>
<feComposite in2="hardAlpha" operator="out"/>
<feColorMatrix type="matrix" values="0 0 0 0 0.0823529 0 0 0 0 0.0823529 0 0 0 0 0.0823529 0 0 0 0.25 0"/>
<feBlend mode="normal" in2="BackgroundImageFix" result="effect1_dropShadow_9124_153377"/>
<feBlend mode="normal" in="SourceGraphic" in2="effect1_dropShadow_9124_153377" result="shape"/>
</filter>
<filter id="filter12_d_9124_153377" x="0.105717" y="14.2897" width="67.3296" height="68.3337" filterUnits="userSpaceOnUse" color-interpolation-filters="sRGB">
<feFlood flood-opacity="0" result="BackgroundImageFix"/>
<feColorMatrix in="SourceAlpha" type="matrix" values="0 0 0 0 0 0 0 0 0 0 0 0 0 0 0 0 0 0 127 0" result="hardAlpha"/>
<feOffset dy="4.12729"/>
<feGaussianBlur stdDeviation="10.3182"/>
<feComposite in2="hardAlpha" operator="out"/>
<feColorMatrix type="matrix" values="0 0 0 0 0.0823529 0 0 0 0 0.0823529 0 0 0 0 0.0823529 0 0 0 0.25 0"/>
<feBlend mode="normal" in2="BackgroundImageFix" result="effect1_dropShadow_9124_153377"/>
<feBlend mode="normal" in="SourceGraphic" in2="effect1_dropShadow_9124_153377" result="shape"/>
</filter>
<filter id="filter13_d_9124_153377" x="95.9278" y="14.3446" width="58.3836" height="58.2401" filterUnits="userSpaceOnUse" color-interpolation-filters="sRGB">
<feFlood flood-opacity="0" result="BackgroundImageFix"/>
<feColorMatrix in="SourceAlpha" type="matrix" values="0 0 0 0 0 0 0 0 0 0 0 0 0 0 0 0 0 0 127 0" result="hardAlpha"/>
<feOffset dy="3.53768"/>
<feGaussianBlur stdDeviation="8.8442"/>
<feComposite in2="hardAlpha" operator="out"/>
<feColorMatrix type="matrix" values="0 0 0 0 0.0823529 0 0 0 0 0.0823529 0 0 0 0 0.0823529 0 0 0 0.25 0"/>
<feBlend mode="normal" in2="BackgroundImageFix" result="effect1_dropShadow_9124_153377"/>
<feBlend mode="normal" in="SourceGraphic" in2="effect1_dropShadow_9124_153377" result="shape"/>
</filter>
<filter id="filter14_d_9124_153377" x="196.388" y="41.335" width="57.619" height="58.5786" filterUnits="userSpaceOnUse" color-interpolation-filters="sRGB">
<feFlood flood-opacity="0" result="BackgroundImageFix"/>
<feColorMatrix in="SourceAlpha" type="matrix" values="0 0 0 0 0 0 0 0 0 0 0 0 0 0 0 0 0 0 127 0" result="hardAlpha"/>
<feOffset dy="3.53768"/>
<feGaussianBlur stdDeviation="8.8442"/>
<feComposite in2="hardAlpha" operator="out"/>
<feColorMatrix type="matrix" values="0 0 0 0 0.0823529 0 0 0 0 0.0823529 0 0 0 0 0.0823529 0 0 0 0.25 0"/>
<feBlend mode="normal" in2="BackgroundImageFix" result="effect1_dropShadow_9124_153377"/>
<feBlend mode="normal" in="SourceGraphic" in2="effect1_dropShadow_9124_153377" result="shape"/>
</filter>
<filter id="filter15_d_9124_153377" x="202.489" y="100.361" width="77.8449" height="77.6535" filterUnits="userSpaceOnUse" color-interpolation-filters="sRGB">
<feFlood flood-opacity="0" result="BackgroundImageFix"/>
<feColorMatrix in="SourceAlpha" type="matrix" values="0 0 0 0 0 0 0 0 0 0 0 0 0 0 0 0 0 0 127 0" result="hardAlpha"/>
<feOffset dy="4.71691"/>
<feGaussianBlur stdDeviation="11.7923"/>
<feComposite in2="hardAlpha" operator="out"/>
<feColorMatrix type="matrix" values="0 0 0 0 0.0823529 0 0 0 0 0.0823529 0 0 0 0 0.0823529 0 0 0 0.25 0"/>
<feBlend mode="normal" in2="BackgroundImageFix" result="effect1_dropShadow_9124_153377"/>
<feBlend mode="normal" in="SourceGraphic" in2="effect1_dropShadow_9124_153377" result="shape"/>
</filter>
</defs>
</svg>
